Coordinates
version=1
nRows=11
nColumns=46
inDegrees=yes

Units are S.I. units (second, meters, Newtons, ...)
Angles are in degrees.

endheader
time	pelvis_tilt	pelvis_list	pelvis_rotation	pelvis_tx	pelvis_ty	pelvis_tz	bb_angle	bb_tx	bb_ty	bb_tz	hip_flexion_r	hip_adduction_r	hip_rotation_r	knee_angle_r	knee_angle_r_beta	ankle_angle_r	subtalar_angle_r	mtp_angle_r	crank_angle_r	hip_flexion_l	hip_adduction_l	hip_rotation_l	knee_angle_l	knee_angle_l_beta	ankle_angle_l	subtalar_angle_l	mtp_angle_l	crank_angle_l	lumbar_extension	lumbar_bending	lumbar_rotation	arm_flex_r	arm_add_r	arm_rot_r	elbow_flex_r	pro_sup_r	wrist_flex_r	wrist_dev_r	arm_flex_l	arm_add_l	arm_rot_l	elbow_flex_l	pro_sup_l	wrist_flex_l	wrist_dev_l
      7.50500000	     -7.28561883	     -2.37613276	     -1.02402580	      0.08900444	      1.15314997	     -0.23828008	      0.00000000	      0.50000000	      0.00000000	      0.25000000	     88.05500766	     -5.53827601	      1.66935560	    116.16803781	      2.02751475	      4.40768847	     -9.62263712	      0.00000000	      0.00000000	     39.02783802	    -13.32387265	    -15.40164169	     40.10328966	      0.69993445	     -2.26065612	     17.00808121	      0.00000000	      0.00000000	    -62.71442207	      3.73413088	      6.85873931	     89.74410739	    -21.48514084	     38.00586296	     52.33167090	     26.73933173	      0.00000000	      0.00000000	     89.41921177	     -9.46618134	     32.44080822	     38.68293795	     23.52963576	      0.00000000	      0.00000000
      7.51000000	     -7.32787063	     -2.49937997	     -1.26291865	      0.08896837	      1.15380358	     -0.23894544	      0.00000000	      0.50000000	      0.00000000	      0.25000000	     88.76467820	     -5.06441657	      1.67048538	    115.81373200	      2.02133094	      4.50461185	     -9.71308568	      0.00000000	      0.00000000	     38.82702586	    -13.74321800	    -15.74984850	     40.76320021	      0.71145206	     -2.82107195	     16.82786301	      0.00000000	      0.00000000	    -62.78843279	      3.95444121	      6.97917358	     89.74821894	    -21.17262196	     37.92575515	     52.53089919	     26.71155342	      0.00000000	      0.00000000	     89.42979775	     -9.70387630	     32.32236429	     38.60201769	     23.53351257	      0.00000000	      0.00000000
      7.51500000	     -7.42875434	     -2.61870829	     -1.48427578	      0.08884346	      1.15443361	     -0.23945553	      0.00000000	      0.50000000	      0.00000000	      0.25000000	     89.40583824	     -4.62348389	      1.63695078	    115.33794113	      2.01302683	      4.70526945	     -9.75741866	      0.00000000	      0.00000000	     38.81566345	    -14.18006467	    -16.00169830	     41.61330601	      0.72628920	     -3.39029893	     16.58354051	      0.00000000	      0.00000000	    -62.82741334	      4.16696351	      7.08149989	     89.75187141	    -20.81026335	     37.79002154	     52.73062609	     26.67618913	      0.00000000	      0.00000000	     89.44392898	     -9.99176145	     32.17507155	     38.54188766	     23.53865102	      0.00000000	      0.00000000
      7.52000000	     -7.53271769	     -2.68369287	     -1.69375435	      0.08878073	      1.15506823	     -0.23999378	      0.00000000	      0.50000000	      0.00000000	      0.25000000	     89.90848084	     -4.22472911	      1.63511194	    114.70264172	      2.00193876	      4.99129206	     -9.77822332	      0.00000000	      0.00000000	     38.92360703	    -14.57558736	    -16.16224921	     42.67630051	      0.74484196	     -3.89501566	     16.32601943	      0.00000000	      0.00000000	    -62.85606241	      4.34203306	      7.11825304	     89.74996468	    -20.49099716	     37.64354592	     52.88751506	     26.64217635	      0.00000000	      0.00000000	     89.45702578	    -10.25616746	     32.03631725	     38.52003304	     23.54574919	      0.00000000	      0.00000000
      7.52500000	     -7.87659278	     -2.91733996	     -1.93104309	      0.08863057	      1.15532142	     -0.24028837	      0.00000000	      0.50000000	      0.00000000	      0.25000000	     90.47359980	     -3.76021124	      1.40781937	    113.86688104	      1.98735198	      5.34398342	     -9.76006154	      0.00000000	      0.00000000	     39.47667517	    -15.16317202	    -16.12809836	     43.95607428	      0.76717822	     -4.37064341	     15.90280226	      0.00000000	      0.00000000	    -62.66766695	      4.63157392	      7.25666036	     89.75455447	    -19.83023260	     37.25146482	     53.00738166	     26.49573046	      0.00000000	      0.00000000	     89.45617424	    -10.74841551	     31.77663873	     38.68520160	     23.61079819	      0.00000000	      0.00000000
      7.53000000	     -8.05438898	     -2.99035381	     -2.07577355	      0.08840693	      1.15590309	     -0.24062297	      0.00000000	      0.50000000	      0.00000000	      0.25000000	     90.72407982	     -3.44649515	      1.32908576	    112.90760519	      1.97060946	      5.79863224	     -9.82162609	      0.00000000	      0.00000000	     39.93937825	    -15.55512442	    -16.06488056	     45.32485874	      0.79106802	     -4.99184293	     15.36828850	      0.00000000	      0.00000000	    -62.65932687	      4.85817483	      7.09364989	     89.75727020	    -18.83956619	     36.45566210	     52.81939875	     25.93083110	      0.00000000	      0.00000000	     89.45139490	    -11.38966519	     31.66015547	     39.01230644	     23.82942113	      0.00000000	      0.00000000
      7.53500000	     -8.06530015	     -2.85277661	     -2.17918800	      0.08822595	      1.15680790	     -0.24080366	      0.00000000	      0.50000000	      0.00000000	      0.25000000	     90.65761758	     -3.23321197	      1.44758291	    111.86189811	      1.95235843	      6.42398942	     -9.78440183	      0.00000000	      0.00000000	     40.24634260	    -15.77579510	    -16.13348216	     46.72462368	      0.81549852	     -5.71885756	     14.95525375	      0.00000000	      0.00000000	    -62.75948135	      4.85727606	      6.96904099	     89.75957800	    -18.73978437	     36.41517954	     52.95055175	     25.91281652	      0.00000000	      0.00000000	     89.49398326	    -11.56670884	     31.60571031	     39.02248256	     23.83903520	      0.00000000	      0.00000000
      7.54000000	     -8.37952393	     -3.04221423	     -2.42894548	      0.08793696	      1.15725182	     -0.24092754	      0.00000000	      0.50000000	      0.00000000	      0.25000000	     90.65074035	     -2.86173984	      1.20674187	    110.54771386	      1.92942159	      7.34123835	     -9.32302973	      0.00000000	      0.00000000	     41.10542384	    -16.33912803	    -15.90233193	     48.40824763	      0.84488331	     -6.52105877	     13.90076646	      0.00000000	      0.00000000	    -62.63773938	      5.04997280	      7.10546038	     89.76232211	    -18.34437439	     36.28770440	     53.22310744	     25.85902141	      0.00000000	      0.00000000	     89.48857815	    -12.03253850	     31.48291744	     39.15170064	     23.87934979	      0.00000000	      0.00000000
      7.54500000	     -8.53441955	     -2.98587050	     -2.46035247	      0.08775961	      1.15803189	     -0.24141416	      0.00000000	      0.50000000	      0.00000000	      0.25000000	     90.33159136	     -2.81724030	      1.20590427	    109.16384933	      1.90526859	      8.37821010	     -8.98444243	      0.00000000	      0.00000000	     41.85199710	    -16.53834380	    -15.62562113	     50.08547464	      0.87415644	     -7.46131461	     12.99888057	      0.00000000	      0.00000000	    -62.64901234	      5.22118032	      6.96368530	     89.76378163	    -18.04833985	     36.07267046	     53.40718521	     25.77241147	      0.00000000	      0.00000000	     89.49901637	    -12.40375297	     31.43430684	     39.35656356	     23.93834861	      0.00000000	      0.00000000
      7.55000000	     -8.76993473	     -2.95260831	     -2.57840471	      0.08734689	      1.15847071	     -0.24139412	      0.00000000	      0.50000000	      0.00000000	      0.25000000	     89.97767417	     -2.65706963	      1.16977453	    107.62275704	      1.87837146	      9.47084928	     -8.58860703	      0.00000000	      0.00000000	     42.82215615	    -16.86479904	    -15.33947015	     51.92750304	      0.90630590	     -8.46109217	     12.10439610	      0.00000000	      0.00000000	    -62.56287053	      5.28352447	      6.89073538	     89.76509679	    -17.73624688	     35.85721612	     53.55198728	     25.67301679	      0.00000000	      0.00000000	     89.50883023	    -12.81885537	     31.39832319	     39.60620855	     24.00417971	      0.00000000	      0.00000000
      7.55500000	     -8.93579283	     -2.88723283	     -2.68366869	      0.08706018	      1.15903669	     -0.24142379	      0.00000000	      0.50000000	      0.00000000	      0.25000000	     89.38760282	     -2.56594693	      1.12793587	    105.95050108	      1.84918509	     10.66775118	     -8.21039302	      0.00000000	      0.00000000	     43.76689669	    -17.13691213	    -15.04985104	     53.79929571	      0.93897485	     -9.57075767	     11.03418347	      0.00000000	      0.00000000	    -62.52352435	      5.29658222	      6.75198352	     89.76627385	    -17.46836658	     35.68586877	     53.67294143	     25.58574899	      0.00000000	      0.00000000	     89.51716371	    -13.19437094	     31.40175693	     39.81593593	     24.05996274	      0.00000000	      0.00000000
